<?xml version="1.0" encoding="utf-8"?>
<!-- Generator: Adobe Illustrator 16.0.0, SVG Export Plug-In . SVG Version: 6.00 Build 0)  -->
<!DOCTYPE svg PUBLIC "-//W3C//DTD SVG 1.1//EN" "http://www.w3.org/Graphics/SVG/1.1/DTD/svg11.dtd">
<svg version="1.1" id="Members_Newsfeed_Icon" xmlns="http://www.w3.org/2000/svg" xmlns:xlink="http://www.w3.org/1999/xlink"
	 x="0px" y="0px" width="24px" height="24px" viewBox="0 0 24 24" enable-background="new 0 0 24 24" xml:space="preserve">
<g>
	<g>
		<path fill="#9A9FBF" d="M14,12H6v2h8V12z M6,18h8v-2H6V18z M16,12v6h2v-6H16z M20,2H4C2.896,2,2,2.896,2,4v6h18v10H4v-4H2v4
			c0,1.104,0.896,2,2,2h16c1.104,0,2-0.896,2-2V4C22,2.896,21.104,2,20,2z M20,8H4V4h16V8z M4,12H2v2h2V12z M7,5H5v2h2V5z M10,5H8v2
			h2V5z M13,5h-2v2h2V5z"/>
	</g>
</g>
</svg>
